<?xml version="1.0" standalone="no"?>
<!DOCTYPE svg PUBLIC "-//W3C//DTD SVG 20010904//EN"
 "http://www.w3.org/TR/2001/REC-SVG-20010904/DTD/svg10.dtd">
<svg version="1.0" xmlns="http://www.w3.org/2000/svg"
 width="800.000000pt" height="800.000000pt" viewBox="0 0 800.000000 800.000000"
 preserveAspectRatio="xMidYMid meet">
<metadata>
Created by potrace 1.14, written by Peter Selinger 2001-2017
</metadata>
<g transform="translate(0.000000,800.000000) scale(0.100000,-0.100000)"
fill="#000000" stroke="none">
<path d="M3850 7063 c-73 -7 -236 -46 -319 -75 -221 -77 -442 -227 -589 -398
-165 -193 -262 -392 -318 -650 -26 -121 -26 -420 0 -540 97 -448 378 -806 779
-995 137 -64 269 -104 399 -120 53 -7 56 -9 61 -38 4 -32 -14 -91 -33 -102 -6
-3 -17 -19 -25 -36 -14 -25 -14 -33 -1 -63 16 -38 57 -56 129 -56 43 0 41 8
22 -125 -26 -183 -54 -264 -185 -530 -102 -209 -134 -302 -151 -441 -31 -256
44 -556 309 -1244 110 -288 186 -506 219 -635 17 -67 19 -70 51 -73 37 -4 36
-7 17 72 -36 142 -131 413 -283 806 -171 442 -239 690 -249 905 -9 200 20 321
133 546 134 269 197 458 211 635 3 46 9 84 12 84 3 0 35 5 70 10 126 18 132
61 27 205 -9 12 -12 31 -9 48 4 22 11 27 34 27 16 0 69 9 117 20 400 90 716
317 923 665 429 721 116 1662 -664 1994 -204 87 -468 127 -687 104z m470 -101
c503 -133 865 -509 981 -1018 30 -133 33 -395 5 -523 -57 -267 -169 -480 -351
-670 -242 -251 -551 -391 -900 -408 -380 -17 -728 118 -995 386 -262 263 -394
578 -393 941 0 355 125 665 369 920 157 163 350 284 559 349 163 51 239 61
435 57 157 -3 187 -7 290 -34z m-260 -2711 c-13 -25 -2 -54 44 -111 40 -50 44
-65 20 -74 -21 -8 -249 -8 -257 1 -4 3 5 22 19 41 31 40 55 112 47 141 -5 20
-1 21 66 21 68 0 71 -1 61 -19z"/>
<path d="M3806 6892 c-44 -8 -68 -34 -49 -53 18 -18 262 -16 274 2 12 19 11
25 -5 38 -17 14 -164 22 -220 13z"/>
<path d="M4232 6848 c-28 -28 -9 -44 126 -110 385 -189 649 -509 752 -914 11
-46 36 -63 58 -40 12 12 12 22 2 68 -96 405 -387 754 -796 954 -121 59 -124
60 -142 42z"/>
<path d="M2913 5024 c-8 -22 7 -49 82 -141 194 -241 471 -400 752 -432 73 -8
91 -7 103 5 30 29 0 48 -100 61 -234 31 -424 129 -611 313 -53 52 -115 121
-138 153 -42 58 -75 74 -88 41z"/>
</g>
</svg>
