<?xml version="1.0" encoding="UTF-8"?>
<svg xmlns="http://www.w3.org/2000/svg" xmlns:xlink="http://www.w3.org/1999/xlink" width="375pt" height="374.999991pt" viewBox="0 0 375 374.999991" version="1.2">
<defs>
<clipPath id="clip1">
  <path d="M 111.148438 198.324219 L 162.476562 198.324219 L 162.476562 249.800781 L 111.148438 249.800781 Z M 111.148438 198.324219 "/>
</clipPath>
<clipPath id="clip2">
  <path d="M 129.476562 253.464844 L 142.3125 253.464844 L 142.3125 310.800781 L 129.476562 310.800781 Z M 129.476562 253.464844 "/>
</clipPath>
</defs>
<g id="surface1">
<rect x="0" y="0" width="375" height="374.999991" style="fill:rgb(100%,100%,100%);fill-opacity:1;stroke:none;"/>
<rect x="0" y="0" width="375" height="374.999991" style="fill:rgb(100%,95.289612%,91.758728%);fill-opacity:1;stroke:none;"/>
<path style=" stroke:none;fill-rule:nonzero;fill:rgb(100%,20.779419%,26.269531%);fill-opacity:1;" d="M 106 125.558594 C 105.257812 118.121094 100.496094 113.660156 92.394531 113.660156 C 87.785156 113.660156 83.621094 115.296875 80.644531 119.015625 L 78.859375 123.101562 L 78.859375 98.863281 L 76.035156 98.863281 L 76.035156 153.882812 L 78.859375 153.882812 L 78.859375 132.175781 C 78.859375 120.945312 85.179688 116.113281 92.09375 116.113281 C 99.160156 116.039062 102.503906 120.277344 103.175781 126.375 C 103.398438 128.382812 103.472656 130.089844 103.472656 132.695312 L 103.472656 153.882812 L 106.296875 153.882812 L 106.296875 132.023438 C 106.296875 128.828125 106.222656 127.5625 106 125.558594 Z M 106 125.558594 "/>
<path style=" stroke:none;fill-rule:nonzero;fill:rgb(100%,81.568909%,29.019165%);fill-opacity:1;" d="M 142.578125 113.660156 C 130.980469 113.660156 123.917969 122.210938 123.917969 134.328125 C 123.917969 146.375 130.980469 154.925781 142.578125 154.925781 C 154.175781 154.925781 161.242188 146.375 161.242188 134.328125 C 161.242188 122.210938 154.175781 113.660156 142.578125 113.660156 Z M 142.578125 152.546875 C 134.25 152.546875 127.039062 146.449219 127.039062 134.328125 C 127.039062 122.136719 134.25 116.039062 142.578125 116.039062 C 150.90625 116.039062 158.191406 122.136719 158.191406 134.328125 C 158.191406 146.449219 150.90625 152.546875 142.578125 152.546875 Z M 142.578125 152.546875 "/>
<path style=" stroke:none;fill-rule:nonzero;fill:rgb(58.039856%,84.709167%,65.879822%);fill-opacity:1;" d="M 208.824219 114.703125 L 206 114.703125 L 206 136.414062 C 206 147.566406 199.753906 152.472656 192.839844 152.472656 C 185.925781 152.472656 182.429688 148.382812 181.6875 142.285156 C 181.464844 140.277344 181.390625 138.492188 181.390625 136.113281 L 181.390625 114.703125 L 178.5625 114.703125 L 178.5625 136.859375 C 178.5625 140.054688 178.636719 141.394531 178.863281 143.402344 C 179.753906 150.464844 184.511719 154.925781 192.46875 154.925781 C 197.078125 154.925781 201.167969 153.214844 204.214844 149.570312 L 206 145.484375 L 206 153.882812 L 208.824219 153.882812 Z M 208.824219 114.703125 "/>
<path style=" stroke:none;fill-rule:nonzero;fill:rgb(46.669006%,81.959534%,77.648926%);fill-opacity:1;" d="M 240.871094 113.660156 C 233.507812 113.660156 228.378906 118.121094 228.378906 124.441406 C 228.378906 131.132812 233.804688 133.734375 240.199219 135.296875 C 248.898438 137.378906 251.949219 139.609375 251.949219 144.589844 C 251.949219 149.796875 247.1875 152.546875 241.539062 152.546875 C 235.515625 152.546875 230.683594 149.871094 229.492188 142.285156 L 226.59375 142.285156 C 227.5625 151.207031 233.804688 154.925781 241.316406 154.925781 C 249.121094 154.925781 254.847656 150.984375 254.847656 144.441406 C 254.847656 137.824219 250.386719 134.851562 241.390625 132.769531 C 235.367188 131.355469 231.277344 129.347656 231.277344 124.21875 C 231.277344 119.089844 235.515625 116.039062 240.722656 116.039062 C 246.667969 116.039062 250.089844 119.164062 251.578125 125.480469 L 254.476562 125.480469 C 253.4375 118.789062 249.199219 113.660156 240.871094 113.660156 Z M 240.871094 113.660156 "/>
<path style=" stroke:none;fill-rule:nonzero;fill:rgb(100%,69.40918%,79.60968%);fill-opacity:1;" d="M 304.363281 133.214844 C 304.363281 123.027344 298.9375 113.660156 287.859375 113.660156 C 277.894531 113.660156 270.085938 121.765625 270.085938 134.183594 C 270.085938 147.9375 277.820312 154.925781 287.1875 154.925781 C 294.773438 154.925781 301.613281 150.539062 303.769531 141.691406 L 300.871094 141.691406 C 298.9375 149.125 293.285156 152.546875 287.339844 152.546875 C 280.496094 152.546875 273.507812 147.789062 273.0625 135.074219 L 304.289062 135.074219 C 304.363281 134.109375 304.363281 133.585938 304.363281 133.214844 Z M 287.710938 116.039062 C 294.328125 116.039062 301.019531 120.5 301.464844 132.621094 L 273.0625 132.621094 C 273.507812 121.394531 280.867188 116.039062 287.710938 116.039062 Z M 287.710938 116.039062 "/>
<path style=" stroke:none;fill-rule:nonzero;fill:rgb(81.568909%,76.469421%,94.509888%);fill-opacity:1;" d="M 175.339844 168.445312 C 178.828125 168.445312 181.730469 169.535156 184.039062 171.707031 C 186.355469 173.882812 187.511719 176.59375 187.511719 179.847656 C 187.511719 183.121094 186.351562 185.863281 184.023438 188.070312 C 181.699219 190.273438 178.804688 191.375 175.339844 191.375 C 171.871094 191.375 168.980469 190.28125 166.671875 188.085938 C 164.359375 185.890625 163.203125 183.144531 163.203125 179.847656 C 163.203125 176.570312 164.359375 173.851562 166.671875 171.691406 C 168.980469 169.527344 171.871094 168.445312 175.339844 168.445312 Z M 175.402344 173.230469 C 173.648438 173.230469 172.148438 173.871094 170.910156 175.144531 C 169.667969 176.417969 169.046875 177.996094 169.046875 179.875 C 169.046875 181.761719 169.671875 183.351562 170.921875 184.648438 C 172.171875 185.945312 173.667969 186.589844 175.402344 186.589844 C 177.132812 186.589844 178.605469 185.945312 179.820312 184.648438 C 181.027344 183.351562 181.632812 181.761719 181.632812 179.875 C 181.632812 177.996094 181.027344 176.417969 179.820312 175.144531 C 178.605469 173.871094 177.132812 173.230469 175.402344 173.230469 Z M 175.402344 173.230469 "/>
<path style=" stroke:none;fill-rule:nonzero;fill:rgb(81.568909%,76.469421%,94.509888%);fill-opacity:1;" d="M 214.882812 173.132812 L 203.9375 173.132812 L 203.9375 178.335938 L 214.019531 178.335938 L 214.019531 182.832031 L 203.9375 182.832031 L 203.9375 191.117188 L 198.21875 191.117188 L 198.21875 168.640625 L 214.882812 168.640625 Z M 214.882812 173.132812 "/>
<path style="fill:none;stroke-width:1.431;stroke-linecap:butt;stroke-linejoin:miter;stroke:rgb(100%,20.779419%,26.269531%);stroke-opacity:1;stroke-miterlimit:4;" d="M 89.627436 25.123445 C 81.224787 25.123445 75.383921 30.215824 75.383921 37.420004 C 75.383921 45.060801 81.576754 48.019104 88.861129 49.801214 C 98.778571 52.180331 102.258141 54.728748 102.258141 60.400313 C 102.258141 66.34365 96.831616 69.466798 90.393743 69.466798 C 83.519254 69.466798 78.012534 66.423845 76.64922 57.771701 L 73.334495 57.771701 C 74.452769 67.95646 81.576754 72.180061 90.144248 72.180061 C 99.045888 72.180061 105.572866 67.689143 105.572866 60.235468 C 105.572866 52.674866 100.476031 49.284402 90.228898 46.923106 C 83.354409 45.305841 78.698646 43.011374 78.698646 37.170509 C 78.698646 31.311822 83.519254 27.832252 89.462591 27.832252 C 96.234609 27.832252 100.146341 31.396472 101.8438 38.600652 L 105.136249 38.600652 C 103.955601 30.982132 99.130538 25.123445 89.627436 25.123445 Z M 144.240199 25.123445 C 131.008031 25.123445 122.957349 34.871587 122.957349 48.700761 C 122.957349 62.427464 131.008031 72.180061 144.240199 72.180061 C 157.46791 72.180061 165.518593 62.427464 165.518593 48.700761 C 165.518593 34.871587 157.46791 25.123445 144.240199 25.123445 Z M 144.240199 69.466798 C 134.737097 69.466798 126.517114 62.512114 126.517114 48.700761 C 126.517114 34.791392 134.737097 27.832252 144.240199 27.832252 C 153.738845 27.832252 162.043478 34.791392 162.043478 48.700761 C 162.043478 62.512114 153.738845 69.466798 144.240199 69.466798 Z M 203.085472 25.123445 C 191.902732 25.123445 182.48428 34.025085 182.48428 48.700761 C 182.48428 63.879883 191.30127 72.180061 202.319165 72.180061 C 211.652967 72.180061 218.941797 66.753536 220.804102 57.437555 L 217.511653 57.437555 C 215.898844 65.220921 209.790662 69.466798 202.586482 69.466798 C 194.099183 69.466798 186.044045 62.77943 186.044045 48.183949 C 186.044045 34.377051 194.86549 27.752057 202.916172 27.752057 C 211.220805 27.752057 216.393379 32.594941 217.925994 40.462957 L 221.240719 40.462957 C 219.872949 31.311822 212.99846 25.123445 203.085472 25.123445 Z M 243.628476 14.524345 C 242.260707 14.524345 241.164709 15.620343 241.164709 16.988112 C 241.164709 18.32915 242.260707 19.447424 243.628476 19.447424 C 244.969514 19.447424 246.087788 18.32915 246.087788 16.988112 C 246.087788 15.620343 244.969514 14.524345 243.628476 14.524345 Z M 245.241286 70.999413 L 245.241286 26.304093 L 242.011211 26.304093 L 242.011211 70.999413 Z M 297.28781 70.999413 L 300.602534 70.999413 C 300.103544 65.327848 299.836227 62.013123 299.836227 57.35736 L 299.836227 42.761879 C 299.836227 40.565428 299.836227 39.117464 299.666927 36.903192 C 298.98527 29.449517 294.244857 25.123445 285.013527 25.123445 C 275.924766 25.123445 269.402243 30.982132 268.800781 38.952619 L 272.11105 38.952619 C 273.042203 31.146977 278.820694 27.832252 285.013527 27.832252 C 292.052862 27.832252 295.942317 31.231627 296.459129 37.255159 C 296.623974 39.117464 296.623974 40.895119 296.623974 42.926724 L 296.623974 44.976151 L 293.728045 44.976151 C 278.905345 44.976151 267.023126 49.631913 267.023126 59.985973 C 267.023126 68.04111 272.632317 72.180061 281.017145 72.180061 C 286.60406 72.180061 291.531594 70.06826 294.579002 65.742188 L 296.708624 61.246816 Z M 281.783452 69.466798 C 274.307501 69.466798 270.582891 65.822383 270.582891 59.798851 C 270.582891 50.215554 283.725952 46.838456 296.623974 47.689413 L 296.623974 53.441174 C 296.623974 62.097773 290.685092 69.466798 281.783452 69.466798 Z M 326.888658 8.661203 L 323.676404 8.661203 L 323.676404 60.235468 C 323.676404 63.193771 323.676404 64.726385 323.761055 66.423845 C 323.9259 70.317756 325.95305 71.413753 328.750963 71.413753 C 329.784587 71.413753 330.88504 71.413753 331.896387 71.164258 L 331.896387 68.620296 C 328.251972 69.052458 327.155974 68.370801 326.968853 65.577343 C 326.888658 64.289769 326.888658 62.699235 326.888658 60.150818 Z M 326.888658 8.661203 " transform="matrix(0.87677,0,0,0.87677,11.202541,183.550651)"/>
<path style=" stroke:none;fill-rule:nonzero;fill:rgb(100%,95.289612%,91.758728%);fill-opacity:1;" d="M 161.859375 223.976562 C 161.859375 224.386719 161.847656 224.796875 161.828125 225.203125 C 161.808594 225.613281 161.777344 226.023438 161.738281 226.429688 C 161.699219 226.835938 161.648438 227.246094 161.589844 227.648438 C 161.527344 228.054688 161.457031 228.457031 161.378906 228.859375 C 161.296875 229.261719 161.207031 229.660156 161.109375 230.058594 C 161.007812 230.457031 160.902344 230.851562 160.78125 231.242188 C 160.664062 231.636719 160.535156 232.023438 160.394531 232.410156 C 160.257812 232.796875 160.109375 233.179688 159.953125 233.554688 C 159.796875 233.933594 159.632812 234.308594 159.457031 234.679688 C 159.28125 235.050781 159.097656 235.414062 158.902344 235.777344 C 158.710938 236.140625 158.511719 236.496094 158.300781 236.847656 C 158.089844 237.195312 157.871094 237.542969 157.640625 237.882812 C 157.414062 238.226562 157.179688 238.558594 156.9375 238.890625 C 156.691406 239.21875 156.4375 239.539062 156.179688 239.855469 C 155.921875 240.175781 155.652344 240.484375 155.378906 240.789062 C 155.101562 241.089844 154.820312 241.386719 154.53125 241.675781 C 154.242188 241.96875 153.945312 242.25 153.640625 242.523438 C 153.339844 242.800781 153.027344 243.066406 152.710938 243.328125 C 152.394531 243.589844 152.074219 243.839844 151.742188 244.082031 C 151.414062 244.328125 151.082031 244.5625 150.738281 244.792969 C 150.398438 245.019531 150.054688 245.238281 149.703125 245.449219 C 149.351562 245.660156 148.996094 245.859375 148.632812 246.054688 C 148.273438 246.246094 147.90625 246.429688 147.539062 246.605469 C 147.167969 246.78125 146.792969 246.949219 146.414062 247.105469 C 146.035156 247.261719 145.65625 247.40625 145.269531 247.546875 C 144.882812 247.683594 144.496094 247.8125 144.105469 247.933594 C 143.710938 248.050781 143.316406 248.160156 142.917969 248.261719 C 142.523438 248.359375 142.125 248.449219 141.722656 248.53125 C 141.320312 248.609375 140.917969 248.679688 140.511719 248.738281 C 140.109375 248.796875 139.699219 248.847656 139.292969 248.890625 C 138.886719 248.929688 138.476562 248.960938 138.066406 248.980469 C 137.660156 249 137.25 249.011719 136.839844 249.011719 C 136.433594 249.011719 136.023438 249 135.613281 248.980469 C 135.207031 248.960938 134.796875 248.929688 134.390625 248.890625 C 133.980469 248.847656 133.574219 248.796875 133.171875 248.738281 C 132.765625 248.679688 132.363281 248.609375 131.960938 248.53125 C 131.558594 248.449219 131.160156 248.359375 130.761719 248.261719 C 130.367188 248.160156 129.972656 248.050781 129.578125 247.933594 C 129.1875 247.8125 128.796875 247.683594 128.414062 247.546875 C 128.027344 247.40625 127.644531 247.261719 127.265625 247.105469 C 126.890625 246.949219 126.515625 246.78125 126.144531 246.605469 C 125.773438 246.429688 125.410156 246.246094 125.046875 246.054688 C 124.6875 245.859375 124.332031 245.660156 123.980469 245.449219 C 123.628906 245.238281 123.28125 245.019531 122.941406 244.792969 C 122.601562 244.5625 122.265625 244.328125 121.9375 244.082031 C 121.609375 243.839844 121.289062 243.589844 120.972656 243.328125 C 120.65625 243.066406 120.34375 242.800781 120.042969 242.523438 C 119.738281 242.25 119.441406 241.96875 119.152344 241.675781 C 118.863281 241.386719 118.582031 241.089844 118.304688 240.789062 C 118.03125 240.484375 117.761719 240.175781 117.503906 239.855469 C 117.242188 239.539062 116.992188 239.21875 116.746094 238.890625 C 116.503906 238.558594 116.269531 238.226562 116.042969 237.882812 C 115.8125 237.542969 115.59375 237.195312 115.382812 236.847656 C 115.171875 236.496094 114.972656 236.140625 114.777344 235.777344 C 114.585938 235.414062 114.402344 235.050781 114.226562 234.679688 C 114.050781 234.308594 113.886719 233.933594 113.730469 233.554688 C 113.570312 233.179688 113.425781 232.796875 113.285156 232.410156 C 113.148438 232.023438 113.019531 231.636719 112.902344 231.242188 C 112.78125 230.851562 112.671875 230.457031 112.574219 230.058594 C 112.476562 229.660156 112.386719 229.261719 112.304688 228.859375 C 112.226562 228.457031 112.15625 228.054688 112.09375 227.648438 C 112.035156 227.246094 111.984375 226.835938 111.945312 226.429688 C 111.90625 226.023438 111.875 225.613281 111.855469 225.203125 C 111.835938 224.796875 111.824219 224.386719 111.824219 223.976562 C 111.824219 223.566406 111.835938 223.15625 111.855469 222.75 C 111.875 222.339844 111.90625 221.929688 111.945312 221.523438 C 111.984375 221.117188 112.035156 220.707031 112.09375 220.304688 C 112.15625 219.898438 112.226562 219.492188 112.304688 219.09375 C 112.386719 218.691406 112.476562 218.289062 112.574219 217.894531 C 112.671875 217.496094 112.78125 217.101562 112.902344 216.710938 C 113.019531 216.316406 113.148438 215.929688 113.285156 215.542969 C 113.425781 215.15625 113.570312 214.773438 113.730469 214.398438 C 113.886719 214.019531 114.050781 213.644531 114.226562 213.273438 C 114.402344 212.902344 114.585938 212.539062 114.777344 212.175781 C 114.972656 211.8125 115.171875 211.457031 115.382812 211.105469 C 115.59375 210.753906 115.8125 210.410156 116.042969 210.066406 C 116.269531 209.726562 116.503906 209.394531 116.746094 209.0625 C 116.992188 208.734375 117.242188 208.414062 117.503906 208.097656 C 117.761719 207.78125 118.03125 207.46875 118.304688 207.164062 C 118.582031 206.859375 118.863281 206.566406 119.152344 206.277344 C 119.441406 205.984375 119.738281 205.703125 120.042969 205.425781 C 120.34375 205.152344 120.65625 204.882812 120.972656 204.625 C 121.289062 204.363281 121.609375 204.113281 121.9375 203.871094 C 122.265625 203.625 122.601562 203.390625 122.941406 203.160156 C 123.28125 202.933594 123.628906 202.714844 123.980469 202.503906 C 124.332031 202.292969 124.6875 202.089844 125.046875 201.898438 C 125.410156 201.707031 125.773438 201.523438 126.144531 201.347656 C 126.515625 201.171875 126.890625 201.003906 127.265625 200.847656 C 127.644531 200.691406 128.027344 200.542969 128.414062 200.40625 C 128.796875 200.269531 129.1875 200.140625 129.578125 200.019531 C 129.972656 199.902344 130.367188 199.792969 130.761719 199.691406 C 131.160156 199.59375 131.558594 199.503906 131.960938 199.421875 C 132.363281 199.34375 132.765625 199.273438 133.171875 199.214844 C 133.574219 199.152344 133.980469 199.105469 134.390625 199.0625 C 134.796875 199.023438 135.207031 198.992188 135.613281 198.972656 C 136.023438 198.953125 136.433594 198.945312 136.839844 198.945312 C 137.25 198.945312 137.660156 198.953125 138.066406 198.972656 C 138.476562 198.992188 138.886719 199.023438 139.292969 199.0625 C 139.699219 199.105469 140.109375 199.152344 140.511719 199.214844 C 140.917969 199.273438 141.320312 199.34375 141.722656 199.421875 C 142.125 199.503906 142.523438 199.59375 142.917969 199.691406 C 143.316406 199.792969 143.710938 199.902344 144.105469 200.019531 C 144.496094 200.140625 144.882812 200.269531 145.269531 200.40625 C 145.65625 200.542969 146.035156 200.691406 146.414062 200.847656 C 146.792969 201.003906 147.167969 201.171875 147.539062 201.347656 C 147.90625 201.523438 148.273438 201.707031 148.632812 201.898438 C 148.996094 202.089844 149.351562 202.292969 149.703125 202.503906 C 150.054688 202.714844 150.398438 202.933594 150.738281 203.160156 C 151.082031 203.390625 151.414062 203.625 151.742188 203.871094 C 152.074219 204.113281 152.394531 204.363281 152.710938 204.625 C 153.027344 204.882812 153.339844 205.152344 153.640625 205.425781 C 153.945312 205.703125 154.242188 205.984375 154.53125 206.277344 C 154.820312 206.566406 155.101562 206.859375 155.378906 207.164062 C 155.652344 207.46875 155.921875 207.78125 156.179688 208.097656 C 156.4375 208.414062 156.691406 208.734375 156.9375 209.0625 C 157.179688 209.394531 157.414062 209.726562 157.640625 210.066406 C 157.871094 210.410156 158.089844 210.753906 158.300781 211.105469 C 158.511719 211.457031 158.710938 211.8125 158.902344 212.175781 C 159.097656 212.539062 159.28125 212.902344 159.457031 213.273438 C 159.632812 213.644531 159.796875 214.019531 159.953125 214.398438 C 160.109375 214.773438 160.257812 215.15625 160.394531 215.542969 C 160.535156 215.929688 160.664062 216.316406 160.78125 216.710938 C 160.902344 217.101562 161.007812 217.496094 161.109375 217.894531 C 161.207031 218.289062 161.296875 218.691406 161.378906 219.09375 C 161.457031 219.492188 161.527344 219.898438 161.589844 220.304688 C 161.648438 220.707031 161.699219 221.117188 161.738281 221.523438 C 161.777344 221.929688 161.808594 222.339844 161.828125 222.75 C 161.847656 223.15625 161.859375 223.566406 161.859375 223.976562 Z M 161.859375 223.976562 "/>
<g clip-path="url(#clip1)" clip-rule="nonzero">
<path style=" stroke:none;fill-rule:nonzero;fill:rgb(100%,20.779419%,26.269531%);fill-opacity:1;" d="M 136.839844 249.667969 C 122.726562 249.667969 111.207031 238.140625 111.207031 223.976562 C 111.207031 209.8125 122.726562 198.324219 136.839844 198.324219 C 150.996094 198.324219 162.476562 209.851562 162.476562 223.976562 C 162.476562 238.097656 150.996094 249.667969 136.839844 249.667969 Z M 136.839844 199.5625 C 123.386719 199.5625 112.441406 210.511719 112.441406 223.976562 C 112.441406 237.441406 123.386719 248.390625 136.839844 248.390625 C 150.296875 248.390625 161.242188 237.441406 161.242188 223.976562 C 161.242188 210.511719 150.335938 199.5625 136.839844 199.5625 Z M 136.839844 199.5625 "/>
</g>
<path style=" stroke:none;fill-rule:nonzero;fill:rgb(100%,95.289612%,91.758728%);fill-opacity:1;" d="M 135.402344 249.050781 C 135.402344 249.050781 134.703125 249.546875 135.113281 250.410156 C 135.113281 250.410156 134.992188 251.769531 134.042969 252.59375 L 134.003906 252.632812 C 133.425781 253.167969 133.796875 254.074219 134.578125 254.117188 C 136.183594 254.199219 139.597656 254.28125 140.050781 253.703125 C 140.667969 252.960938 138.570312 251.316406 138.40625 250.492188 C 138.40625 250.492188 139.0625 249.75 138.363281 249.050781 Z M 135.402344 249.050781 "/>
<path style=" stroke:none;fill-rule:nonzero;fill:rgb(100%,20.779419%,26.269531%);fill-opacity:1;" d="M 136.71875 254.773438 C 136.101562 254.773438 135.402344 254.773438 134.578125 254.734375 C 133.960938 254.691406 133.46875 254.320312 133.21875 253.746094 C 133.015625 253.167969 133.136719 252.59375 133.589844 252.179688 L 133.632812 252.140625 C 134.207031 251.605469 134.414062 250.820312 134.453125 250.492188 C 134.085938 249.546875 134.660156 248.804688 135.03125 248.558594 L 135.195312 248.433594 L 138.609375 248.433594 L 138.777344 248.597656 C 139.433594 249.214844 139.394531 249.996094 139.105469 250.535156 C 139.226562 250.738281 139.476562 251.070312 139.679688 251.273438 C 140.378906 252.140625 141.242188 253.210938 140.542969 254.074219 C 140.339844 254.320312 139.96875 254.773438 136.71875 254.773438 Z M 135.648438 249.667969 C 135.566406 249.792969 135.566406 249.914062 135.648438 250.121094 L 135.730469 250.285156 L 135.730469 250.453125 C 135.730469 250.535156 135.566406 252.058594 134.496094 253.046875 C 134.371094 253.167969 134.414062 253.25 134.414062 253.332031 C 134.414062 253.375 134.496094 253.5 134.660156 253.5 C 137.871094 253.621094 139.226562 253.457031 139.597656 253.292969 C 139.515625 253.003906 139.023438 252.386719 138.777344 252.058594 C 138.324219 251.523438 137.953125 251.070312 137.871094 250.617188 L 137.789062 250.328125 L 137.992188 250.082031 C 138.160156 249.914062 138.160156 249.792969 138.117188 249.667969 Z M 135.648438 249.667969 "/>
<g clip-path="url(#clip2)" clip-rule="nonzero">
<path style=" stroke:none;fill-rule:nonzero;fill:rgb(100%,20.779419%,26.269531%);fill-opacity:1;" d="M 135.8125 368.824219 C 135.484375 368.824219 135.195312 368.535156 135.195312 368.207031 C 135.195312 368 135.238281 347.414062 139.597656 329.585938 C 142.808594 316.453125 139.679688 308.300781 135.6875 298.046875 C 134.25 294.382812 132.808594 290.554688 131.410156 286.105469 C 128.203125 275.691406 130.382812 271.324219 132.726562 266.753906 C 134.414062 263.460938 136.140625 260.085938 136.347656 254.117188 C 136.347656 253.785156 136.636719 253.5 137.003906 253.539062 C 137.335938 253.539062 137.621094 253.828125 137.582031 254.199219 C 137.335938 260.457031 135.484375 264.121094 133.835938 267.332031 C 131.535156 271.902344 129.515625 275.855469 132.5625 285.777344 C 133.921875 290.183594 135.402344 293.972656 136.800781 297.636719 C 140.875 308.136719 144.082031 316.410156 140.75 329.917969 C 136.429688 347.578125 136.386719 368 136.386719 368.207031 C 136.429688 368.578125 136.140625 368.824219 135.8125 368.824219 Z M 135.8125 368.824219 "/>
</g>
<path style=" stroke:none;fill-rule:nonzero;fill:rgb(100%,20.779419%,26.269531%);fill-opacity:1;" d="M 157.949219 222.164062 C 157.660156 222.164062 157.414062 221.960938 157.332031 221.671875 C 154.371094 207.796875 141.449219 203.472656 141.328125 203.429688 C 140.996094 203.308594 140.832031 202.976562 140.914062 202.648438 C 141.039062 202.320312 141.367188 202.15625 141.695312 202.238281 C 141.820312 202.277344 155.398438 206.808594 158.527344 221.382812 C 158.605469 221.710938 158.402344 222.039062 158.03125 222.125 C 158.03125 222.164062 157.988281 222.164062 157.949219 222.164062 Z M 157.949219 222.164062 "/>
<path style=" stroke:none;fill-rule:nonzero;fill:rgb(100%,20.779419%,26.269531%);fill-opacity:1;" d="M 133.753906 246.5 C 133.753906 246.5 133.714844 246.5 133.753906 246.5 C 123.097656 246.167969 117.214844 236.824219 116.96875 236.410156 C 116.804688 236.121094 116.886719 235.753906 117.175781 235.546875 C 117.460938 235.382812 117.832031 235.464844 118.039062 235.753906 C 118.078125 235.835938 123.796875 244.933594 133.753906 245.265625 C 134.085938 245.265625 134.371094 245.550781 134.371094 245.882812 C 134.332031 246.253906 134.085938 246.5 133.753906 246.5 Z M 133.753906 246.5 "/>
<path style=" stroke:none;fill-rule:nonzero;fill:rgb(100%,20.779419%,26.269531%);fill-opacity:1;" d="M 136.964844 202.855469 L 136.839844 202.855469 C 136.800781 202.855469 135.359375 202.566406 133.058594 202.855469 C 132.726562 202.894531 132.398438 202.648438 132.355469 202.320312 C 132.316406 201.988281 132.5625 201.660156 132.890625 201.617188 C 135.402344 201.289062 137.003906 201.617188 137.089844 201.617188 C 137.417969 201.703125 137.621094 202.03125 137.582031 202.359375 C 137.5 202.648438 137.253906 202.855469 136.964844 202.855469 Z M 136.964844 202.855469 "/>
</g>
</svg>
