<?xml version="1.0" standalone="no"?>
<!DOCTYPE svg PUBLIC "-//W3C//DTD SVG 20010904//EN"
 "http://www.w3.org/TR/2001/REC-SVG-20010904/DTD/svg10.dtd">
<svg version="1.0" xmlns="http://www.w3.org/2000/svg"
 width="657.000000pt" height="607.000000pt" viewBox="0 0 657.000000 607.000000"
 preserveAspectRatio="xMidYMid meet">

<g transform="translate(0.000000,607.000000) scale(0.100000,-0.100000)"
fill="#000000" stroke="none">
<path d="M87 6023 c-4 -3 -7 -349 -7 -768 l0 -763 21 -5 c48 -13 47 -19 52
376 4 394 5 406 55 503 21 40 87 108 133 136 44 28 130 48 200 48 135 0 237
-65 280 -178 29 -79 38 -204 39 -569 0 -208 4 -314 11 -318 5 -4 21 -4 35 -1
l24 6 0 333 c0 452 -12 541 -83 645 -33 50 -113 105 -178 122 -65 18 -195 17
-259 -3 -30 -9 -83 -35 -117 -57 -55 -36 -66 -50 -95 -111 -17 -38 -35 -69
-40 -69 -4 0 -8 150 -8 334 0 295 -2 335 -16 340 -20 8 -39 8 -47 -1z"/>
<path d="M6252 2676 c3 -726 4 -755 22 -775 40 -44 109 -62 174 -45 18 5 22
13 22 45 0 39 0 39 -40 39 -27 0 -47 7 -60 20 -20 20 -20 33 -20 745 l0 725
-50 0 -50 0 2 -754z m68 717 c0 -10 0 -306 0 -658 0 -352 5 -671 10 -710 10
-78 31 -105 81 -105 31 0 49 -24 32 -41 -5 -5 -34 -6 -68 -1 -52 6 -62 11 -82
41 l-23 34 0 722 c0 397 3 725 7 728 13 14 43 7 43 -10z"/>
<path d="M4232 3264 c-32 -22 -30 -76 4 -103 15 -12 35 -21 46 -21 25 0 68 44
68 70 0 28 -43 70 -72 70 -13 0 -34 -7 -46 -16z m82 -20 c9 -8 16 -23 16 -31
0 -23 -30 -53 -52 -53 -19 0 -58 33 -58 50 0 17 39 50 59 50 11 0 27 -7 35
-16z"/>
<path d="M1678 3199 c-252 -39 -474 -228 -560 -477 -36 -104 -49 -261 -28
-365 30 -154 122 -316 238 -418 67 -58 198 -124 287 -145 126 -30 133 -37 95
-99 -22 -35 -18 -64 9 -66 60 -4 56 0 53 -64 -4 -76 -41 -193 -96 -304 -99
-197 -101 -308 -14 -586 23 -71 45 -137 49 -145 4 -8 17 -42 29 -75 12 -33 28
-73 35 -90 18 -39 70 -195 90 -268 17 -63 38 -80 24 -19 -14 64 -77 249 -122
360 -24 59 -65 172 -91 251 -42 126 -49 158 -53 255 -7 132 5 184 72 317 54
108 92 219 102 301 7 52 11 63 28 66 72 11 81 26 45 72 -11 14 -20 35 -20 47
0 17 8 23 43 28 317 53 555 302 599 627 29 217 -48 434 -211 598 -98 98 -239
173 -368 196 -46 8 -189 10 -235 3z m284 -34 c389 -101 610 -521 477 -907 -70
-206 -222 -356 -439 -435 -68 -25 -87 -27 -210 -27 -110 1 -146 5 -198 22
-121 41 -202 91 -287 177 -90 91 -132 155 -172 265 -25 69 -27 87 -28 225 0
139 2 156 28 230 35 99 122 230 196 296 72 65 167 118 261 146 94 28 279 31
372 8z m-134 -1425 c2 -13 13 -35 23 -49 11 -13 16 -28 12 -31 -14 -13 -129
-20 -140 -9 -7 7 -4 22 9 47 10 20 16 42 14 49 -6 15 11 22 49 20 24 -2 31 -7
33 -27z"/>
<path d="M1690 3111 c-39 -11 -10 -20 50 -16 69 4 69 5 45 15 -24 10 -61 11
-95 1z"/>
<path d="M1910 3087 c0 -2 39 -23 87 -48 170 -87 320 -270 364 -442 6 -28 15
-45 20 -40 11 11 -29 129 -67 201 -63 116 -187 235 -307 296 -64 32 -97 43
-97 33z"/>
<path d="M1240 2141 c0 -5 20 -33 44 -63 99 -122 274 -218 397 -218 51 0 22
15 -65 33 -45 10 -104 31 -140 51 -68 38 -184 139 -205 180 -14 25 -31 35 -31
17z"/>
<path d="M353 3005 c-79 -22 -123 -48 -175 -102 -72 -78 -94 -176 -62 -284 12
-42 28 -66 73 -109 60 -58 91 -73 266 -125 170 -50 221 -73 263 -119 97 -106
48 -269 -98 -321 -70 -24 -205 -25 -279 0 -92 30 -159 116 -185 238 -6 25 -10
27 -56 27 -45 0 -50 -2 -50 -22 0 -13 11 -54 24 -91 39 -108 95 -173 192 -218
74 -34 177 -53 241 -45 27 3 57 6 68 6 11 0 50 12 87 26 128 48 196 137 205
268 4 66 2 76 -29 136 -25 50 -45 73 -87 102 -57 40 -155 81 -236 98 -125 28
-224 71 -267 117 -90 96 -41 265 93 323 43 18 66 21 133 18 139 -5 210 -57
265 -194 26 -64 30 -69 60 -72 55 -6 60 0 50 55 -41 218 -267 349 -496 288z
m268 -34 c30 -11 74 -37 97 -56 47 -40 112 -161 112 -207 0 -28 -2 -30 -27
-23 -29 7 -43 21 -43 43 0 26 -49 108 -86 144 -81 82 -236 103 -350 49 -172
-81 -190 -301 -32 -394 24 -14 115 -46 203 -72 239 -70 310 -121 344 -246 46
-168 -75 -319 -279 -349 -81 -12 -224 7 -289 37 -93 45 -157 125 -187 236 -10
40 -10 49 1 53 31 12 47 -3 68 -64 32 -90 79 -146 157 -184 156 -76 375 -33
447 89 22 38 27 59 27 112 -1 143 -75 200 -357 275 -120 32 -185 64 -237 116
-110 110 -80 327 57 411 98 61 261 74 374 30z"/>
<path d="M3190 3013 c-149 -25 -288 -128 -364 -271 -110 -207 -95 -510 34
-699 94 -138 233 -209 405 -207 184 1 338 94 413 249 16 33 32 77 36 98 l7 37
-50 0 -50 0 -12 -42 c-27 -100 -89 -174 -184 -220 -53 -25 -71 -28 -157 -28
-74 0 -111 5 -152 20 -106 40 -202 166 -237 310 -7 30 -13 111 -13 180 0 103
4 136 22 191 66 193 206 300 393 300 169 0 290 -92 335 -253 l17 -58 48 0 c55
0 57 4 37 74 -19 65 -66 147 -111 194 -93 97 -270 150 -417 125z m179 -23
c148 -24 262 -119 316 -264 28 -73 26 -86 -10 -86 -19 0 -26 9 -41 56 -36 115
-129 208 -242 240 -81 24 -212 16 -282 -17 -72 -34 -152 -108 -193 -178 -124
-212 -90 -565 70 -725 27 -26 77 -61 113 -79 60 -30 72 -32 165 -32 92 0 105
3 165 32 36 18 84 51 106 75 44 46 94 131 94 161 0 20 40 40 54 27 15 -14 -14
-97 -55 -160 -100 -155 -324 -223 -527 -161 -42 13 -132 64 -164 94 -43 40
-104 139 -128 207 -29 82 -40 305 -20 403 20 102 75 203 146 275 116 116 259
160 433 132z"/>
<path d="M5195 3007 c-87 -23 -160 -64 -208 -117 -46 -51 -97 -159 -97 -206 0
-24 2 -25 52 -22 l53 3 7 44 c16 92 87 173 181 205 60 20 168 21 235 1 112
-34 152 -102 160 -272 l5 -113 -64 0 c-36 0 -116 -6 -179 -14 -297 -38 -446
-135 -489 -321 -19 -81 8 -187 64 -253 58 -69 209 -119 325 -108 144 15 288
103 323 199 11 30 26 -14 29 -88 l3 -80 50 0 c49 0 50 0 47 30 -1 17 -6 219
-10 450 -8 401 -9 423 -31 477 -28 73 -108 147 -184 172 -69 23 -208 29 -272
13z m279 -34 c66 -24 138 -95 161 -158 16 -44 19 -101 25 -470 4 -231 11 -428
15 -437 5 -13 1 -19 -19 -24 -38 -9 -46 2 -46 70 0 89 -11 157 -24 153 -6 -2
-22 -26 -36 -54 -33 -66 -55 -92 -113 -131 -142 -95 -383 -87 -488 17 -47 46
-65 83 -78 156 -23 130 36 239 175 320 91 53 303 95 485 95 l69 0 0 99 c0 183
-49 277 -169 322 -80 30 -214 24 -286 -13 -84 -44 -132 -99 -160 -186 -16 -48
-20 -53 -44 -50 -22 3 -26 7 -23 33 5 42 47 124 88 168 44 48 133 94 204 106
78 14 206 6 264 -16z"/>
<path d="M5291 2450 c-69 -10 -186 -54 -236 -88 -118 -82 -155 -217 -92 -339
39 -74 120 -116 236 -121 97 -4 159 14 237 70 109 78 155 181 162 366 l4 122
-128 -1 c-71 -1 -153 -5 -183 -9z m284 -125 c-1 -120 -16 -176 -67 -251 -36
-55 -81 -92 -148 -123 -47 -21 -68 -25 -146 -24 -103 1 -152 17 -202 66 -38
36 -52 80 -52 160 0 69 23 120 75 165 39 35 106 72 128 72 8 0 20 6 27 14 6 8
17 13 23 10 7 -2 41 2 77 10 39 9 109 14 175 13 l110 -2 0 -110z"/>
<path d="M4230 2425 l0 -566 48 3 47 3 0 560 0 560 -47 3 -48 3 0 -566z m78 4
c2 -491 1 -537 -14 -543 -9 -4 -24 -4 -33 -1 -14 4 -16 56 -13 546 l2 540 28
-3 27 -3 3 -536z"/>
</g>
</svg>
